<?xml version="1.0" encoding="UTF-8" standalone="no"?>
<!-- Created with Inkscape (http://www.inkscape.org/) -->

<svg
   xmlns:dc="http://purl.org/dc/elements/1.1/"
   xmlns:cc="http://creativecommons.org/ns#"
   xmlns:rdf="http://www.w3.org/1999/02/22-rdf-syntax-ns#"
   xmlns:svg="http://www.w3.org/2000/svg"
   xmlns="http://www.w3.org/2000/svg"
   xmlns:sodipodi="http://sodipodi.sourceforge.net/DTD/sodipodi-0.dtd"
   xmlns:inkscape="http://www.inkscape.org/namespaces/inkscape"
   id="svg2"
   version="1.1"
   inkscape:version="0.48.3.1 r9886"
   width="650"
   height="170"
   sodipodi:docname="background-app.svg">
  <metadata
     id="metadata8">
    <rdf:RDF>
      <cc:Work
         rdf:about="">
        <dc:format>image/svg+xml</dc:format>
        <dc:type
           rdf:resource="http://purl.org/dc/dcmitype/StillImage" />
      </cc:Work>
    </rdf:RDF>
  </metadata>
  <defs
     id="defs6">
    <filter
       inkscape:collect="always"
       id="filter3791"
       x="-0.03659201"
       width="1.073184"
       y="-0.16652888"
       height="1.3330578"
       color-interpolation-filters="sRGB">
      <feGaussianBlur
         inkscape:collect="always"
         stdDeviation="9.1214717"
         id="feGaussianBlur3793" />
    </filter>
    <filter
       inkscape:collect="always"
       id="filter3794">
      <feGaussianBlur
         inkscape:collect="always"
         stdDeviation="1.8242943"
         id="feGaussianBlur3796" />
    </filter>
  </defs>
  <sodipodi:namedview
     pagecolor="#ffffff"
     bordercolor="#666666"
     borderopacity="1"
     objecttolerance="10"
     gridtolerance="10"
     guidetolerance="10"
     inkscape:pageopacity="0"
     inkscape:pageshadow="2"
     inkscape:window-width="1920"
     inkscape:window-height="1056"
     id="namedview4"
     showgrid="false"
     inkscape:zoom="1.0866667"
     inkscape:cx="392.48902"
     inkscape:cy="360.03926"
     inkscape:window-x="0"
     inkscape:window-y="24"
     inkscape:window-maximized="1"
     inkscape:current-layer="g2987" />
  <g
     id="g2987"
     transform="translate(0,28)">
    <path
       style="fill:none;fill-opacity:1;opacity:1;stroke-width:1;stroke-miterlimit:4;stroke-dasharray:none;stroke:#010101;stroke-opacity:1;stroke-linejoin:bevel;stroke-linecap:round;filter:url(#filter3794)"
       d="m 29.229792,145.32976 c 0.0539,-2.87493 0.25212,-3.28414 0.84951,-1.75362 0.60906,1.56042 0.9341,0.96361 1.48844,-2.73304 1.17569,-7.84003 7.15502,-18.40468 14.55733,-25.72077 7.6375,-7.54854 15.01561,-12.19526 24.69983,-15.555913 13.32025,-4.62242 25.23655,-5.50194 38.834598,-2.86628 4.4,0.85284 9.21687,1.78518 10.70415,2.07188 2.34325,0.45171 2.78181,0.14 3.28599,-2.33549 1.83133,-8.991806 3.83258,-13.499406 8.10123,-18.247175 11.57603,-12.875332 32.84033,-16.163807 49.56823,-7.665611 3.77341,1.916989 7.41867,3.251733 8.10057,2.966096 0.68191,-0.285636 2.98747,-2.779311 5.12346,-5.5415 7.62001,-9.853897 24.65886,-20.555518 39.66985,-24.915521 10.4937,-3.047941 32.50797,-3.830939 43.73708,-1.555631 13.85734,2.807856 28.37075,9.675864 37.72589,17.852569 5.91298,5.168143 7.80094,4.920824 11.45061,-1.5 10.52987,-18.525084 30.13475,-33.418072 50.53295,-38.387704 10.725,-2.61295 29.79,-2.37984 39.9318,0.48824 17.5887,4.97404 35.2888,17.385648 45.0918,31.619146 2.0948,3.041675 4.4791,5.530318 5.2982,5.530318 0.8192,0 2.9946,-1.148036 4.8342,-2.551191 13.9289,-10.624127 35.6041,-8.820307 48.457,4.032629 6.4172,6.417154 8.815,11.641297 11.4163,24.872693 0.6358,3.234387 1.0072,3.241829 13.9707,0.27995 26.0361,-5.948716 53.1665,5.132396 68.4266,27.948135 4.8941,7.31729 9.9568,20.36563 10.1731,26.21941 l 0.1,2.69838 0.7485,-2.5 c 0.565,-1.88721 0.8469,-0.94682 1.1503,3.83655 0.221,3.4851 0.2143,6.5226 -0.015,6.75 -0.2292,0.2274 -134.8917,0.41345 -299.25008,0.41345 l -298.833328,0 0.0703,-3.75 z"
       id="path2989"
       inkscape:connector-curvature="0" />
    <path
       style="opacity:0.6;fill:#000000;fill-opacity:1"
       d="m 29.700982,145.08323 c 0.0539,-2.87493 0.25212,-3.28414 0.84951,-1.75362 0.60906,1.56042 0.9341,0.96361 1.48844,-2.73303 1.17569,-7.84003 7.15502,-18.40468 14.55733,-25.72077 7.6375,-7.54854 15.01561,-12.19527 24.69983,-15.555923 13.320249,-4.62242 25.236546,-5.50194 38.834598,-2.86628 4.39999,0.85284 9.21686,1.78518 10.70414,2.07188 2.34325,0.45171 2.78181,0.14 3.28599,-2.33549 1.83133,-8.9918 3.83258,-13.4994 8.10123,-18.247171 11.57603,-12.87533 32.84033,-16.16381 49.56823,-7.66561 3.77341,1.91699 7.41867,3.25173 8.10057,2.96609 0.68191,-0.28563 2.98747,-2.77931 5.12346,-5.5415 7.62001,-9.8539 24.65886,-20.555522 39.66985,-24.915522 10.4937,-3.04794 32.50797,-3.83094 43.73708,-1.55563 13.85734,2.80785 28.37075,9.67586 37.72589,17.852572 5.91298,5.16814 7.80094,4.92082 11.45061,-1.5 10.52987,-18.525092 30.13475,-33.418072 50.53295,-38.387712 10.725,-2.61295 29.79,-2.37984 39.9318,0.48824 17.5887,4.97404 35.2888,17.38565 45.0918,31.619152 2.0948,3.04167 4.4791,5.53032 5.2982,5.53032 0.8192,0 2.9946,-1.14804 4.8342,-2.55119 13.9289,-10.624132 35.6041,-8.820312 48.457,4.03263 6.4172,6.41715 8.815,11.64129 11.4163,24.872691 0.6358,3.23439 1.0072,3.24183 13.9707,0.27995 26.0361,-5.948721 53.1665,5.1324 68.4266,27.948143 4.8941,7.31729 9.9568,20.36563 10.1731,26.21941 l 0.1,2.69838 0.7485,-2.5 c 0.565,-1.88721 0.8469,-0.94682 1.1503,3.83654 0.221,3.4851 0.2143,6.5226 -0.015,6.75 -0.2292,0.2274 -134.8917,0.41345 -299.25008,0.41345 l -298.833318,0 0.0703,-3.75 z"
       id="path2989-0"
       inkscape:connector-curvature="0" />
  </g>
</svg>
