<?xml version="1.0" encoding="UTF-8" standalone="no"?>
<!-- Created with Inkscape (http://www.inkscape.org/) -->

<svg
   xmlns:dc="http://purl.org/dc/elements/1.1/"
   xmlns:cc="http://creativecommons.org/ns#"
   xmlns:rdf="http://www.w3.org/1999/02/22-rdf-syntax-ns#"
   xmlns:svg="http://www.w3.org/2000/svg"
   xmlns="http://www.w3.org/2000/svg"
   xmlns:sodipodi="http://sodipodi.sourceforge.net/DTD/sodipodi-0.dtd"
   xmlns:inkscape="http://www.inkscape.org/namespaces/inkscape"
   id="svg2"
   version="1.1"
   inkscape:version="0.48.3.1 r9886"
   width="600"
   height="149"
   sodipodi:docname="background-main.svg">
  <metadata
     id="metadata8">
    <rdf:RDF>
      <cc:Work
         rdf:about="">
        <dc:format>image/svg+xml</dc:format>
        <dc:type
           rdf:resource="http://purl.org/dc/dcmitype/StillImage" />
        <dc:title></dc:title>
      </cc:Work>
    </rdf:RDF>
  </metadata>
  <defs
     id="defs6" />
  <sodipodi:namedview
     pagecolor="#ffffff"
     bordercolor="#666666"
     borderopacity="1"
     objecttolerance="10"
     gridtolerance="10"
     guidetolerance="10"
     inkscape:pageopacity="0"
     inkscape:pageshadow="2"
     inkscape:window-width="960"
     inkscape:window-height="1029"
     id="namedview4"
     showgrid="false"
     inkscape:zoom="0.76838937"
     inkscape:cx="321.60571"
     inkscape:cy="143.32163"
     inkscape:window-x="961"
     inkscape:window-y="24"
     inkscape:window-maximized="0"
     inkscape:current-layer="g2987" />
  <g
     id="g2987">
    <path
       style="fill:#535353;fill-opacity:1"
       d="m -1.1383844,141.50693 c 0.19029552,-4.88039 0.40557296,-11.34532 0.47839441,-14.36652 0.0728255,-3.02119 0.41751538,-5.20765 0.76598479,-4.85881 0.34846941,0.34884 2.6386388,-1.97093 5.0892663,-5.15504 C 21.639937,95.759843 49.394196,86.052048 79.774368,91.040512 c 12.530567,2.057532 13.074423,1.866353 14.857599,-5.222906 1.80444,-7.173825 4.456772,-11.602613 10.130273,-16.915237 7.29298,-6.82911 14.50971,-9.906347 24.72479,-10.542761 9.96072,-0.620562 17.39219,0.794483 25.37239,4.831207 3.28217,1.660256 6.39821,3.018653 6.92454,3.018653 0.52633,0 4.67877,-3.728781 9.22762,-8.286189 14.06662,-14.093028 28.42877,-21.925201 47.17981,-25.728753 11.79118,-2.391782 34.85266,-1.623139 45.67744,1.522429 9.96433,2.89553 21.54761,8.762191 31.1252,15.764175 4.25214,3.108665 8.4325,5.516896 9.28968,5.351647 0.85719,-0.165259 4.35714,-4.323525 7.77766,-9.240576 7.70647,-11.078178 15.14362,-18.74203 23.82072,-24.54684 17.60893,-11.7800323 36.21402,-16.2079287 57.81684,-13.7600361 22.81229,2.5849289 41.44366,13.2987691 57.64658,33.1492591 3.37643,4.136523 6.91557,7.520954 7.86476,7.520954 0.94919,0 3.36502,-1.115082 5.3685,-2.477951 14.99781,-10.202284 38.14207,-8.138322 50.38759,4.493479 4.9519,5.108108 9.71858,14.321009 11.26311,21.769018 1.64444,7.929751 2.08385,8.100131 14.34375,5.561506 8.12025,-1.68144 12.54094,-2.044876 19.60194,-1.611508 14.40114,0.883856 23.51429,4.033724 38.13586,13.181265 8.08061,5.055395 7.51754,2.403251 7.83774,36.916923 l 0.22815,24.5921 -303.93064,0 -303.930647,0 0.3459926,-8.87344 z"
       id="path2989"
       inkscape:connector-curvature="0" />
    <path
       style="opacity:0.2;fill:#000000;fill-opacity:1"
       d="m -5.8458536,145.98474 c 0.1902955,-4.8125 0.4055729,-11.1875 0.4783944,-14.16667 0.072825,-2.97916 0.4175153,-5.13521 0.7659847,-4.79122 0.3484694,0.34399 2.6386389,-1.94351 5.0892661,-5.08333 C 16.932469,100.87404 44.686728,91.30129 75.0669,96.22036 c 12.530567,2.02891 13.074423,1.84039 14.857601,-5.15025 1.80444,-7.07403 4.456769,-11.44121 10.130269,-16.67993 7.29298,-6.734115 14.50971,-9.768545 24.72479,-10.396105 9.96072,-0.61193 17.39219,0.78343 25.37239,4.764005 3.28217,1.63716 6.39821,2.97666 6.92454,2.97666 0.52633,0 4.67877,-3.67691 9.22762,-8.170925 14.06662,-13.89698 28.42877,-21.6202 47.17981,-25.37084 11.79118,-2.35851 34.85266,-1.60056 45.67744,1.50125 9.96433,2.85525 21.54761,8.6403 31.1252,15.54488 4.25214,3.06542 8.4325,5.44015 9.28968,5.2772 0.85719,-0.16296 4.35714,-4.26338 7.77766,-9.11203 7.70647,-10.92407 15.14362,-18.48131 23.82072,-24.20537 17.60893,-11.61616 36.21402,-15.982459 57.81684,-13.568619 22.81229,2.548969 41.44366,13.113769 57.64658,32.688119 3.37643,4.07898 6.91557,7.41633 7.86476,7.41633 0.94919,0 3.36502,-1.09957 5.3685,-2.44348 14.99781,-10.06036 38.14207,-8.02511 50.38759,4.43097 4.9519,5.03705 9.71858,14.121795 11.26311,21.466195 1.64444,7.81944 2.08385,7.98745 14.34375,5.48414 8.12025,-1.65805 12.54094,-2.01643 19.60194,-1.58909 14.40114,0.87156 23.51429,3.97761 38.13586,12.9979 8.08061,4.98507 7.51754,2.36982 7.83774,36.40337 l 0.22815,24.25 -303.93064,0 -303.9306462,0 0.3459926,-8.75 z"
       id="path2989-9"
       inkscape:connector-curvature="0" />
  </g>
</svg>
