<?xml version="1.0" encoding="UTF-8" standalone="no"?>
<!-- Created with Inkscape (http://www.inkscape.org/) -->

<svg
   xmlns:osb="http://www.openswatchbook.org/uri/2009/osb"
   xmlns:dc="http://purl.org/dc/elements/1.1/"
   xmlns:cc="http://creativecommons.org/ns#"
   xmlns:rdf="http://www.w3.org/1999/02/22-rdf-syntax-ns#"
   xmlns:svg="http://www.w3.org/2000/svg"
   xmlns="http://www.w3.org/2000/svg"
   xmlns:xlink="http://www.w3.org/1999/xlink"
   xmlns:sodipodi="http://sodipodi.sourceforge.net/DTD/sodipodi-0.dtd"
   xmlns:inkscape="http://www.inkscape.org/namespaces/inkscape"
   id="svg2"
   version="1.1"
   inkscape:version="0.48.3.1 r9886"
   width="700"
   height="200"
   sodipodi:docname="background-app.svg">
  <metadata
     id="metadata8">
    <rdf:RDF>
      <cc:Work
         rdf:about="">
        <dc:format>image/svg+xml</dc:format>
        <dc:type
           rdf:resource="http://purl.org/dc/dcmitype/StillImage" />
        <dc:title></dc:title>
      </cc:Work>
    </rdf:RDF>
  </metadata>
  <defs
     id="defs6">
    <linearGradient
       id="linearGradient5297">
      <stop
         id="stop5305"
         offset="0"
         style="stop-color:#010101;stop-opacity:0.68644071;" />
      <stop
         style="stop-color:#010101;stop-opacity:0;"
         offset="1"
         id="stop5301" />
    </linearGradient>
    <linearGradient
       id="linearGradient5291"
       osb:paint="solid">
      <stop
         style="stop-color:#000000;stop-opacity:1;"
         offset="0"
         id="stop5293" />
    </linearGradient>
    <linearGradient
       inkscape:collect="always"
       xlink:href="#linearGradient5297"
       id="linearGradient5303"
       x1="366.52148"
       y1="142.52873"
       x2="362.94067"
       y2="8.1729069"
       gradientUnits="userSpaceOnUse"
       spreadMethod="pad" />
    <linearGradient
       inkscape:collect="always"
       xlink:href="#linearGradient5297-0"
       id="linearGradient5303-7"
       x1="366.52148"
       y1="142.52873"
       x2="362.94067"
       y2="8.1729069"
       gradientUnits="userSpaceOnUse"
       spreadMethod="pad" />
    <linearGradient
       id="linearGradient5297-0">
      <stop
         id="stop5305-0"
         offset="0"
         style="stop-color:#010101;stop-opacity:0.68644071;" />
      <stop
         style="stop-color:#010101;stop-opacity:0;"
         offset="1"
         id="stop5301-4" />
    </linearGradient>
    <filter
       inkscape:collect="always"
       id="filter5804"
       x="-0.07301036"
       width="1.1460207"
       y="-0.33670257"
       height="1.6734051">
      <feGaussianBlur
         inkscape:collect="always"
         stdDeviation="18.156843"
         id="feGaussianBlur5806" />
    </filter>
  </defs>
  <sodipodi:namedview
     pagecolor="#ffffff"
     bordercolor="#666666"
     borderopacity="1"
     objecttolerance="10"
     gridtolerance="10"
     guidetolerance="10"
     inkscape:pageopacity="0"
     inkscape:pageshadow="2"
     inkscape:window-width="1920"
     inkscape:window-height="1056"
     id="namedview4"
     showgrid="false"
     inkscape:zoom="1.5367787"
     inkscape:cx="337.33262"
     inkscape:cy="-55.383314"
     inkscape:window-x="0"
     inkscape:window-y="24"
     inkscape:window-maximized="1"
     inkscape:current-layer="g2987"
     inkscape:snap-bbox="true" />
  <g
     id="g2987"
     transform="translate(0,58)">
    <path
       style="fill:url(#linearGradient5303);fill-opacity:1"
       d="m 68.640937,133.63027 c 3.216633,-9.06181 4.984311,-13.55964 13.350701,-22.48187 7.578925,-8.08245 14.613003,-12.425328 24.412262,-16.476152 13.03006,-5.386379 25.17902,-5.847032 38.77708,-3.211372 4.4,0.85283 9.21687,1.78518 10.70415,2.07188 2.34325,0.4517 2.78181,0.14 3.28599,-2.3355 1.83133,-8.9918 3.83257,-13.4994 8.10123,-18.24717 11.57603,-12.87533 32.84033,-16.1638 49.56823,-7.66561 3.77341,1.91699 7.41867,3.25173 8.10057,2.9661 0.68191,-0.28564 2.98747,-2.77931 5.12346,-5.5415 7.62001,-9.8539 24.65886,-20.55552 39.66985,-24.91552 10.4937,-3.04794 32.50797,-3.83094 43.73708,-1.55563 13.85734,2.80785 28.37075,9.67586 37.72589,17.85256 5.91298,5.16815 7.80094,4.92083 11.45061,-1.5 10.52987,-18.52508 30.13475,-33.41807 50.53294,-38.3877 10.72501,-2.61295 29.78997,-2.37984 39.93179,0.48824 17.58871,4.97404 35.28878,17.38565 45.09177,31.61915 2.09488,3.04167 4.4791,5.53031 5.29827,5.53031 0.81916,0 2.99454,-1.14803 4.83417,-2.55119 13.92895,-10.62412 35.60408,-8.8203 48.45702,4.03263 6.41715,6.41716 8.81496,11.6413 11.41624,24.8727 0.63587,3.23438 1.00728,3.24182 13.97074,0.27995 26.03615,-5.94872 53.16652,5.13239 68.42661,27.948124 4.8941,7.31729 10.32286,19.67425 10.5391,25.52803 0.50516,6.98224 0.0318,0.77553 0.37173,5.70238 0.22101,3.4851 1.47508,5.54653 1.24595,5.77393 -0.22922,0.2274 -134.89487,1.43247 -299.25006,0.41345 L 68.337644,142.01036 c -0.01996,-1.64009 -0.03694,-1.42231 -0.02921,-2.62541 0.02194,-3.41472 0.08245,-1.12143 0.332501,-5.75468 z"
       id="path2989"
       inkscape:connector-curvature="0"
       inkscape:transform-center-x="13.853766"
       inkscape:transform-center-y="-23.741404"
       sodipodi:nodetypes="csssssssssssssssssssssscccscsc" />
    <path
       style="opacity:0.5;fill:#000000;fill-opacity:1"
       d="m 68.230187,138.51377 c 0,0 -0.08865,-1.68779 0.224047,-3.47274 1.623497,-7.82484 7.849141,-17.83857 15.254296,-25.02663 7.64044,-7.41643 15.02139,-11.981827 24.70934,-15.283657 13.32535,-4.541534 25.24624,-5.405652 38.84952,-2.816118 4.4017,0.837905 9.22043,1.753938 10.70827,2.035621 2.34416,0.443795 2.78289,0.13755 3.28725,-2.294627 1.83203,-8.834437 3.83405,-13.26315 8.10435,-17.927831 11.58049,-12.650001 32.85295,-15.880921 49.58729,-7.531456 3.77486,1.883442 7.42153,3.194822 8.1037,2.914191 0.68215,-0.280641 2.98861,-2.73067 5.12542,-5.444519 7.62294,-9.68145 24.66835,-20.195783 39.6851,-24.47948 10.49774,-2.994598 32.52048,-3.763895 43.7539,-1.528405 13.86267,2.75871 28.38166,9.506525 37.7404,17.540127 5.91525,5.077702 7.80394,4.834711 11.45502,-1.47375 10.53391,-18.200876 30.14632,-32.833227 50.55237,-37.715885 10.72913,-2.567222 29.80142,-2.338191 39.94713,0.479696 17.59548,4.886989 35.30237,17.081387 45.10912,31.06579 2.09569,2.988438 4.48082,5.433525 5.30031,5.433525 0.81947,0 2.9957,-1.127938 4.83603,-2.506542 13.9343,-10.43819 35.61777,-8.665938 48.47565,3.962056 6.41962,6.304855 7.19158,10.298822 9.79385,23.298662 0.63612,3.177777 2.63445,4.323832 15.6029,1.413797 26.04616,-5.844613 51.69155,5.675238 66.95752,28.091685 4.89599,7.18923 9.77824,18.99657 9.99458,24.74789 0.1768,3.99403 0.31998,1.31718 0.41613,6.5253 0.22109,3.42411 3.47544,4.22745 3.24633,4.45087 -0.22932,0.22342 -134.94506,1.10352 -299.36514,0.40622 L 68.404079,142.1168 c -0.09858,-3.22084 -0.115709,-3.14809 -0.173892,-3.60303 z"
       id="path2989-9"
       inkscape:connector-curvature="0"
       sodipodi:nodetypes="ccssssssscsssssssssssssscccscc" />
    <path
       style="fill:none;stroke:#000000;stroke-width:0.99916618999999995;stroke-linecap:round;stroke-miterlimit:4.09999990000000025;stroke-opacity:1;stroke-dasharray:none;marker-start:none;marker-mid:none;opacity:0.3"
       d="m 68.965244,138.1293 c 0,0 -0.08855,-1.6878 0.223665,-3.47276 1.620783,-7.82489 7.836005,-17.83868 15.228773,-25.02679 7.627655,-7.41648 14.996253,-11.981907 24.667988,-15.283758 13.30305,-4.541559 25.204,-5.405685 38.78451,-2.816138 4.39434,0.837915 9.205,1.753951 10.69035,2.035643 2.34024,0.443793 2.77824,0.137551 3.28175,-2.294645 1.82897,-8.834497 3.82764,-13.263235 8.09079,-17.927946 11.56111,-12.650081 32.79797,-15.881022 49.50431,-7.531508 3.76854,1.883452 7.40911,3.194841 8.09014,2.914209 0.68101,-0.280642 2.98361,-2.730688 5.11684,-5.444555 7.61019,-9.681513 24.62707,-20.19591 39.61869,-24.479638 10.48018,-2.994609 32.46606,-3.763914 43.68069,-1.52841 13.83947,2.758728 28.33416,9.506581 37.67724,17.540243 5.90535,5.077733 7.79088,4.834741 11.43585,-1.473759 10.51629,-18.200998 30.09588,-32.833442 50.46778,-37.716133 10.71117,-2.567238 29.75155,-2.338205 39.88028,0.479703 17.56604,4.887021 35.2433,17.08149 45.03364,31.06599 2.09218,2.988449 4.47332,5.433555 5.29144,5.433555 0.81809,0 2.99068,-1.127947 4.82793,-2.506556 13.91099,-10.438258 34.40399,-8.431991 47.24422,4.192146 6.17882,6.07483 7.88337,12.818002 10.48128,25.817926 0.63506,3.1778 3.07654,1.574681 16.02329,-1.335378 26.00257,-5.844647 51.25745,6.883094 66.49788,29.299689 4.88779,7.18927 9.58875,17.55881 9.80472,23.31017 0.17651,3.99406 -0.25517,1.4322 0.41592,6.29527 0.22072,3.42413 1.91931,4.68761 3.76113,4.91103 -0.22893,0.22342 -134.71924,1.10353 -298.86418,0.40623 L 69.138843,141.73236 c -0.09843,-3.22086 -0.115517,-3.14811 -0.173599,-3.60306 z"
       id="path2989-9-1"
       inkscape:connector-curvature="0"
       sodipodi:nodetypes="ccssssssscsssssssssssssscccscc" />
    <path
       style="opacity:0.5;fill:none;stroke:#000000;stroke-width:10;stroke-miterlimit:4;stroke-opacity:1;stroke-dasharray:none;filter:url(#filter5804)"
       d="m 60.048668,139.43629 c 0,0 -0.0887,-1.68779 0.22404,-3.47274 1.6235,-7.82484 7.84914,-17.83857 15.2543,-25.02663 7.64044,-7.41643 15.02139,-11.981842 24.709342,-15.283672 13.32535,-4.54153 25.24624,-5.40565 38.84952,-2.81612 4.4017,0.83791 9.22043,1.75394 10.70827,2.03563 2.34416,0.44379 2.78289,0.13755 3.28725,-2.29463 1.83203,-8.83444 3.83405,-13.26315 8.10435,-17.92783 11.58049,-12.65 32.85295,-15.88092 49.58729,-7.53146 3.77486,1.88344 7.42153,3.19482 8.1037,2.91419 0.68215,-0.28064 2.98861,-2.73067 5.12542,-5.44452 7.62294,-9.68145 24.66835,-20.19578 39.6851,-24.47948 10.49774,-2.99459 32.52048,-3.76389 43.7539,-1.5284 13.86267,2.75871 28.38166,9.50652 37.7404,17.54013 5.91525,5.0777 7.80394,4.83471 11.45502,-1.47375 10.53391,-18.20088 30.14632,-32.83323 50.55237,-37.71589 10.72913,-2.56722 29.80142,-2.33819 39.94713,0.4797 17.59548,4.88699 35.30237,17.08138 45.10912,31.06579 2.09569,2.98843 4.48082,5.43352 5.30031,5.43352 0.81947,0 2.9957,-1.12794 4.83603,-2.50654 13.9343,-10.43819 35.61777,-8.66594 48.47565,3.96206 6.41962,6.30485 9.22505,11.60024 11.82732,24.60008 0.63612,3.17778 0.60098,3.02241 13.56943,0.11237 26.04616,-5.84461 53.18695,5.04257 68.45292,27.459032 4.89599,7.18923 10.12333,19.39918 10.33967,25.1505 0.1768,3.99403 0.0324,0.62699 0.12855,5.83511 0.22109,3.42411 1.92253,5.1477 1.69342,5.37112 -0.22932,0.22342 -134.94506,1.10352 -299.36514,0.40622 L 60.222558,143.03932 c -0.0986,-3.22084 -0.11571,-3.14809 -0.17389,-3.60303 z"
       id="path2989-9-1-1"
       inkscape:connector-curvature="0"
       sodipodi:nodetypes="ccssssssscsssssssssssssscccscc" />
  </g>
</svg>
