<?xml version="1.0" encoding="UTF-8" standalone="no"?>
<!-- Created with Inkscape (http://www.inkscape.org/) -->

<svg
   xmlns:dc="http://purl.org/dc/elements/1.1/"
   xmlns:cc="http://creativecommons.org/ns#"
   xmlns:rdf="http://www.w3.org/1999/02/22-rdf-syntax-ns#"
   xmlns:svg="http://www.w3.org/2000/svg"
   xmlns="http://www.w3.org/2000/svg"
   xmlns:xlink="http://www.w3.org/1999/xlink"
   xmlns:sodipodi="http://sodipodi.sourceforge.net/DTD/sodipodi-0.dtd"
   xmlns:inkscape="http://www.inkscape.org/namespaces/inkscape"
   width="100"
   height="100"
   id="svg2"
   version="1.1"
   inkscape:version="0.48.3.1 r9886"
   sodipodi:docname="fog.svg">
  <defs
     id="defs4">
    <linearGradient
       gradientUnits="userSpaceOnUse"
       xlink:href="#linearGradient3700"
       id="linearGradient3067"
       y2="16.436062"
       x2="47.973103"
       y1="79.776169"
       x1="47.973103" />
    <linearGradient
       gradientTransform="matrix(1.0238095,0,0,1.0119048,-1.1428571,-98.071429)"
       gradientUnits="userSpaceOnUse"
       xlink:href="#ButtonShadow-0"
       id="linearGradient3026"
       y2="90.238609"
       x2="32.251034"
       y1="6.1317081"
       x1="32.251034" />
    <linearGradient
       gradientTransform="translate(0,-97)"
       gradientUnits="userSpaceOnUse"
       xlink:href="#ButtonShadow-0"
       id="linearGradient3721"
       y2="90.238609"
       x2="32.251034"
       y1="6.1317081"
       x1="32.251034" />
    <linearGradient
       gradientTransform="matrix(1.0238095,0,0,1.0119048,-1.1428571,-98.071429)"
       gradientUnits="userSpaceOnUse"
       xlink:href="#ButtonShadow-0"
       id="linearGradient3725"
       y2="90.238609"
       x2="32.251034"
       y1="6.1317081"
       x1="32.251034" />
    <linearGradient
       gradientTransform="matrix(1.0238095,0,0,1.0119048,-1.1428571,-98.071429)"
       gradientUnits="userSpaceOnUse"
       xlink:href="#ButtonShadow-0"
       id="linearGradient3772"
       y2="90.238609"
       x2="32.251034"
       y1="6.1317081"
       x1="32.251034" />
    <linearGradient
       gradientTransform="matrix(1.0238095,0,0,1.0119048,-1.1428571,-98.071429)"
       gradientUnits="userSpaceOnUse"
       xlink:href="#ButtonShadow-0"
       id="linearGradient3780"
       y2="90.238609"
       x2="32.251034"
       y1="6.1317081"
       x1="32.251034" />
    <linearGradient
       gradientTransform="matrix(1.0058652,0,0,0.994169,100,0)"
       gradientUnits="userSpaceOnUse"
       id="ButtonShadow-0"
       y2="7.0165396"
       x2="45.447727"
       y1="92.539597"
       x1="45.447727">
      <stop
         offset="0"
         style="stop-color:#000000;stop-opacity:1"
         id="stop3750-8" />
      <stop
         offset="1"
         style="stop-color:#000000;stop-opacity:0.58823532"
         id="stop3752-5" />
    </linearGradient>
    <linearGradient
       gradientUnits="userSpaceOnUse"
       xlink:href="#linearGradient3822"
       id="linearGradient3617"
       y2="5.9877172"
       x2="48"
       y1="90"
       x1="48" />
    <clipPath
       id="clipPath3613">
      <rect
         style="fill:#ffffff;fill-opacity:1;fill-rule:nonzero;stroke:none"
         id="rect3615"
         y="6"
         x="6"
         ry="6"
         rx="6"
         height="84"
         width="84" />
    </clipPath>
    <radialGradient
       gradientTransform="matrix(1.1573129,0,0,0.99590774,-7.5510206,0.19713193)"
       gradientUnits="userSpaceOnUse"
       xlink:href="#linearGradient3737"
       id="radialGradient3619"
       fy="90.171875"
       fx="48"
       r="42"
       cy="90.171875"
       cx="48" />
    <linearGradient
       gradientUnits="userSpaceOnUse"
       xlink:href="#linearGradient3737"
       id="linearGradient3613"
       y2="138.66119"
       x2="48"
       y1="20.220806"
       x1="48" />
    <filter
       id="filter3794"
       color-interpolation-filters="sRGB"
       height="1.3839999"
       width="1.3839999"
       y="-0.192"
       x="-0.192">
      <feGaussianBlur
         stdDeviation="5.28"
         id="feGaussianBlur3796" />
    </filter>
    <linearGradient
       gradientUnits="userSpaceOnUse"
       xlink:href="#linearGradient3737"
       id="linearGradient3188"
       y2="63.893143"
       x2="36.357143"
       y1="6"
       x1="36.357143" />
    <filter
       id="filter3174"
       color-interpolation-filters="sRGB">
      <feGaussianBlur
         stdDeviation="1.71"
         id="feGaussianBlur3176" />
    </filter>
    <linearGradient
       id="linearGradient3700">
      <stop
         offset="0"
         style="stop-color:#f05517;stop-opacity:1"
         id="stop3702" />
      <stop
         offset="1"
         style="stop-color:#f37340;stop-opacity:1"
         id="stop3704" />
    </linearGradient>
    <linearGradient
       id="linearGradient3737">
      <stop
         offset="0"
         style="stop-color:#ffffff;stop-opacity:1"
         id="stop3739" />
      <stop
         offset="1"
         style="stop-color:#ffffff;stop-opacity:0"
         id="stop3741" />
    </linearGradient>
    <linearGradient
       gradientTransform="scale(1.0058652,0.994169)"
       gradientUnits="userSpaceOnUse"
       id="ButtonShadow"
       y2="7.0165396"
       x2="45.447727"
       y1="92.539597"
       x1="45.447727">
      <stop
         offset="0"
         style="stop-color:#000000;stop-opacity:1"
         id="stop3750" />
      <stop
         offset="1"
         style="stop-color:#000000;stop-opacity:0.58823532"
         id="stop3752" />
    </linearGradient>
    <linearGradient
       id="linearGradient3822">
      <stop
         offset="0"
         style="stop-color:#e6e6e6;stop-opacity:1"
         id="stop3824" />
      <stop
         offset="1"
         style="stop-color:#f5f5f5;stop-opacity:1"
         id="stop3826" />
    </linearGradient>
    <linearGradient
       inkscape:collect="always"
       xlink:href="#linearGradient3737"
       id="linearGradient6333"
       gradientUnits="userSpaceOnUse"
       x1="48"
       y1="20.220806"
       x2="48"
       y2="138.66119" />
    <linearGradient
       inkscape:collect="always"
       xlink:href="#linearGradient3737"
       id="linearGradient6378"
       gradientUnits="userSpaceOnUse"
       x1="48"
       y1="20.220806"
       x2="48"
       y2="138.66119" />
    <linearGradient
       inkscape:collect="always"
       xlink:href="#ButtonShadow"
       id="linearGradient6424"
       gradientUnits="userSpaceOnUse"
       gradientTransform="matrix(1.0058652,0,0,0.994169,437.04241,397.30638)"
       x1="45.447727"
       y1="92.539597"
       x2="45.447727"
       y2="7.0165396" />
    <linearGradient
       inkscape:collect="always"
       xlink:href="#linearGradient3737"
       id="linearGradient6533"
       gradientUnits="userSpaceOnUse"
       x1="48"
       y1="20.220806"
       x2="48"
       y2="138.66119" />
    <linearGradient
       inkscape:collect="always"
       xlink:href="#ButtonShadow-0"
       id="linearGradient6535"
       gradientUnits="userSpaceOnUse"
       gradientTransform="matrix(1.0238095,0,0,-1.0119048,435.89955,495.37781)"
       x1="32.251034"
       y1="6.1317081"
       x2="32.251034"
       y2="90.238609" />
    <linearGradient
       inkscape:collect="always"
       xlink:href="#ButtonShadow-0"
       id="linearGradient6537"
       gradientUnits="userSpaceOnUse"
       gradientTransform="matrix(1.0238095,0,0,-1.0119048,435.89955,495.37781)"
       x1="32.251034"
       y1="6.1317081"
       x2="32.251034"
       y2="90.238609" />
    <linearGradient
       inkscape:collect="always"
       xlink:href="#ButtonShadow-0"
       id="linearGradient6539"
       gradientUnits="userSpaceOnUse"
       gradientTransform="matrix(1.0238095,0,0,-1.0119048,435.89955,495.37781)"
       x1="32.251034"
       y1="6.1317081"
       x2="32.251034"
       y2="90.238609" />
    <linearGradient
       inkscape:collect="always"
       xlink:href="#ButtonShadow-0"
       id="linearGradient6541"
       gradientUnits="userSpaceOnUse"
       gradientTransform="matrix(1.0238095,0,0,1.0119048,435.89955,-495.37781)"
       x1="32.251034"
       y1="6.1317081"
       x2="32.251034"
       y2="90.238609" />
    <linearGradient
       inkscape:collect="always"
       xlink:href="#ButtonShadow-0"
       id="linearGradient6543"
       gradientUnits="userSpaceOnUse"
       gradientTransform="translate(437.04241,-494.30638)"
       x1="32.251034"
       y1="6.1317081"
       x2="32.251034"
       y2="90.238609" />
    <linearGradient
       inkscape:collect="always"
       xlink:href="#linearGradient3822"
       id="linearGradient6545"
       gradientUnits="userSpaceOnUse"
       gradientTransform="translate(437.04241,397.30638)"
       x1="48"
       y1="90"
       x2="48"
       y2="5.9877172" />
    <linearGradient
       inkscape:collect="always"
       xlink:href="#linearGradient3737"
       id="linearGradient6547"
       gradientUnits="userSpaceOnUse"
       gradientTransform="translate(437.04241,397.30638)"
       x1="36.357143"
       y1="6"
       x2="36.357143"
       y2="63.893143" />
    <radialGradient
       inkscape:collect="always"
       xlink:href="#linearGradient3737"
       id="radialGradient6549"
       gradientUnits="userSpaceOnUse"
       gradientTransform="matrix(1.1573129,0,0,0.99590774,429.49139,397.50351)"
       cx="48"
       cy="90.171875"
       fx="48"
       fy="90.171875"
       r="42" />
  </defs>
  <sodipodi:namedview
     id="base"
     pagecolor="#ffffff"
     bordercolor="#666666"
     borderopacity="1.0"
     inkscape:pageopacity="0.0"
     inkscape:pageshadow="2"
     inkscape:zoom="2.8284271"
     inkscape:cx="111.13105"
     inkscape:cy="50.732018"
     inkscape:document-units="px"
     inkscape:current-layer="layer1"
     showgrid="false"
     showguides="true"
     inkscape:guide-bbox="true"
     inkscape:window-width="1366"
     inkscape:window-height="744"
     inkscape:window-x="0"
     inkscape:window-y="24"
     inkscape:window-maximized="1" />
  <metadata
     id="metadata7">
    <rdf:RDF>
      <cc:Work
         rdf:about="">
        <dc:format>image/svg+xml</dc:format>
        <dc:type
           rdf:resource="http://purl.org/dc/dcmitype/StillImage" />
        <dc:title></dc:title>
      </cc:Work>
    </rdf:RDF>
  </metadata>
  <g
     inkscape:label="Layer 1"
     inkscape:groupmode="layer"
     id="layer1"
     transform="translate(0,-952.36217)">
    <rect
       style="opacity:0.9;fill:url(#linearGradient6424);fill-opacity:1;fill-rule:nonzero;stroke:none;display:none;filter:url(#filter3174)"
       id="rect3745"
       y="404.30637"
       x="442.04242"
       ry="6"
       rx="6"
       height="85"
       width="86" />
    <rect
       style="opacity:0.1;fill:url(#linearGradient6533);fill-opacity:1;fill-rule:nonzero;stroke:#ffffff;stroke-width:0.5;stroke-linecap:round;stroke-linejoin:miter;stroke-miterlimit:4;stroke-opacity:1;stroke-dasharray:none;stroke-dashoffset:0;display:none;filter:url(#filter3794)"
       id="rect3171"
       clip-path="url(#clipPath3613)"
       y="15"
       x="15"
       ry="12"
       rx="12"
       height="66"
       width="66"
       transform="translate(437.04241,397.30638)" />
    <g
       id="g6508"
       transform="matrix(1.0879779,0,0,1.0879779,-477.64833,516.68055)">
      <path
         inkscape:connector-curvature="0"
         d="m 449.04241,492.33763 c -5.51109,0 -10.03125,-4.52016 -10.03125,-10.03125 l 0,-71 c 0,-5.51109 4.52016,-10.03125 10.03125,-10.03125 l 72,0 c 5.51109,0 10.03125,4.52016 10.03125,10.03125 l 0,71 c 0,5.51109 -4.52016,10.03125 -10.03125,10.03125 l -72,0 z"
         id="path3786"
         style="opacity:0.07999998;fill:url(#linearGradient6535);fill-opacity:1;fill-rule:nonzero;stroke:none;display:inline" />
      <path
         inkscape:connector-curvature="0"
         d="m 449.04241,491.33763 c -4.97163,0 -9.03125,-4.05962 -9.03125,-9.03125 l 0,-71 c 0,-4.97163 4.05962,-9.03125 9.03125,-9.03125 l 72,0 c 4.97163,0 9.03125,4.05962 9.03125,9.03125 l 0,71 c 0,4.97163 -4.05962,9.03125 -9.03125,9.03125 l -72,0 z"
         id="path3778"
         style="opacity:0.1;fill:url(#linearGradient6537);fill-opacity:1;fill-rule:nonzero;stroke:none;display:inline" />
      <path
         inkscape:connector-curvature="0"
         d="m 449.04241,490.30638 c -4.40913,0 -8,-3.59087 -8,-8 l 0,-71 c 0,-4.40913 3.59087,-8 8,-8 l 72,0 c 4.40913,0 8,3.59087 8,8 l 0,71 c 0,4.40913 -3.59087,8 -8,8 l -72,0 z"
         id="path3770"
         style="opacity:0.2;fill:url(#linearGradient6539);fill-opacity:1;fill-rule:nonzero;stroke:none;display:inline" />
      <rect
         width="86"
         height="85"
         rx="7"
         ry="7"
         x="442.04242"
         y="-489.30637"
         transform="scale(1,-1)"
         id="rect3723"
         style="opacity:0.3;fill:url(#linearGradient6541);fill-opacity:1;fill-rule:nonzero;stroke:none;display:inline" />
      <rect
         width="84"
         height="84"
         rx="6"
         ry="6"
         x="443.04242"
         y="-488.30637"
         transform="scale(1,-1)"
         id="rect3716"
         style="opacity:0.45;fill:url(#linearGradient6543);fill-opacity:1;fill-rule:nonzero;stroke:none;display:inline" />
      <rect
         width="84"
         height="84"
         rx="6"
         ry="6"
         x="443.04242"
         y="403.30637"
         id="rect2419"
         style="fill:url(#linearGradient6545);fill-opacity:1;fill-rule:nonzero;stroke:none" />
      <path
         d="m 449.04241,403.30638 c -3.324,0 -6,2.676 -6,6 l 0,2 0,68 0,2 c 0,0.33472 0.0413,0.6507 0.0937,0.96875 0.0487,0.2956 0.097,0.59691 0.1875,0.875 0.01,0.0304 0.0209,0.0636 0.0312,0.0937 0.0989,0.28777 0.23488,0.54745 0.375,0.8125 0.14459,0.27351 0.31562,0.53561 0.5,0.78125 0.18438,0.24563 0.37378,0.47347 0.59375,0.6875 0.43995,0.42806 0.94291,0.81453 1.5,1.09375 0.27855,0.13961 0.57347,0.24695 0.875,0.34375 -0.2562,-0.10022 -0.48671,-0.23627 -0.71875,-0.375 -0.007,-0.004 -0.0239,0.005 -0.0312,0 -0.0319,-0.0193 -0.0623,-0.0425 -0.0937,-0.0625 -0.12039,-0.0767 -0.23102,-0.16351 -0.34375,-0.25 -0.10617,-0.0808 -0.21328,-0.16111 -0.3125,-0.25 -0.17793,-0.16143 -0.34746,-0.34539 -0.5,-0.53125 -0.10758,-0.13026 -0.21839,-0.26529 -0.3125,-0.40625 -0.0251,-0.0384 -0.0385,-0.0859 -0.0625,-0.125 -0.0648,-0.10303 -0.13023,-0.20452 -0.1875,-0.3125 -0.10101,-0.19471 -0.20567,-0.4157 -0.28125,-0.625 -0.008,-0.0218 -0.0236,-0.0405 -0.0312,-0.0625 -0.0318,-0.0919 -0.0358,-0.18683 -0.0625,-0.28125 -0.0303,-0.10662 -0.0704,-0.20303 -0.0937,-0.3125 -0.0729,-0.34151 -0.125,-0.69821 -0.125,-1.0625 l 0,-2 0,-68 0,-2 c 0,-2.78185 2.21815,-5 5,-5 l 2,0 68,0 2,0 c 2.78185,0 5,2.21815 5,5 l 0,2 0,68 0,2 c 0,0.36429 -0.0521,0.72099 -0.125,1.0625 -0.0442,0.20689 -0.0884,0.39766 -0.15625,0.59375 -0.008,0.022 -0.0233,0.0407 -0.0312,0.0625 -0.0627,0.17374 -0.13838,0.36745 -0.21875,0.53125 -0.0416,0.0828 -0.079,0.16995 -0.125,0.25 -0.0546,0.0972 -0.12677,0.18835 -0.1875,0.28125 -0.0941,0.14096 -0.20492,0.27599 -0.3125,0.40625 -0.14317,0.17445 -0.30314,0.347 -0.46875,0.5 -0.0112,0.0102 -0.02,0.0212 -0.0312,0.0312 -0.13839,0.12556 -0.28509,0.23444 -0.4375,0.34375 -0.10257,0.0731 -0.20432,0.15336 -0.3125,0.21875 -0.007,0.005 -0.0238,-0.004 -0.0312,0 -0.23204,0.13873 -0.46255,0.27478 -0.71875,0.375 0.30153,-0.0968 0.59645,-0.20414 0.875,-0.34375 0.55709,-0.27922 1.06005,-0.66569 1.5,-1.09375 0.21997,-0.21403 0.40937,-0.44187 0.59375,-0.6875 0.18438,-0.24564 0.35541,-0.50774 0.5,-0.78125 0.14012,-0.26505 0.27613,-0.52473 0.375,-0.8125 0.0104,-0.0308 0.0213,-0.0627 0.0312,-0.0937 0.0905,-0.27809 0.1388,-0.5794 0.1875,-0.875 0.0524,-0.31805 0.0937,-0.63403 0.0937,-0.96875 l 0,-2 0,-68 0,-2 c 0,-3.324 -2.676,-6 -6,-6 l -72,0 z"
         inkscape:connector-curvature="0"
         id="rect3728"
         style="opacity:0.7;fill:url(#linearGradient6547);fill-opacity:1;fill-rule:nonzero;stroke:none" />
      <path
         d="m 449.04241,487.30638 c -3.324,0 -6,-2.676 -6,-6 l 0,-2 0,-68 0,-2 c 0,-0.33472 0.0413,-0.6507 0.0937,-0.96875 0.0487,-0.2956 0.097,-0.59692 0.1875,-0.875 0.01,-0.0304 0.0209,-0.0636 0.0312,-0.0937 0.0989,-0.28777 0.23488,-0.54745 0.375,-0.8125 0.14459,-0.27351 0.31562,-0.53562 0.5,-0.78125 0.18438,-0.24564 0.37378,-0.47347 0.59375,-0.6875 0.43995,-0.42806 0.94291,-0.81453 1.5,-1.09375 0.27855,-0.13961 0.57347,-0.24695 0.875,-0.34375 -0.2562,0.10022 -0.48671,0.23627 -0.71875,0.375 -0.007,0.004 -0.0239,-0.005 -0.0312,0 -0.0319,0.0193 -0.0623,0.0425 -0.0937,0.0625 -0.12039,0.0767 -0.23102,0.16351 -0.34375,0.25 -0.10617,0.0808 -0.21328,0.16111 -0.3125,0.25 -0.17793,0.16143 -0.34746,0.34539 -0.5,0.53125 -0.10758,0.13025 -0.21839,0.26528 -0.3125,0.40625 -0.0251,0.0384 -0.0385,0.0859 -0.0625,0.125 -0.0648,0.10303 -0.13023,0.20452 -0.1875,0.3125 -0.10101,0.19471 -0.20567,0.4157 -0.28125,0.625 -0.008,0.0218 -0.0236,0.0405 -0.0312,0.0625 -0.0318,0.0919 -0.0358,0.18683 -0.0625,0.28125 -0.0303,0.10662 -0.0704,0.20303 -0.0937,0.3125 -0.0729,0.34151 -0.125,0.6982 -0.125,1.0625 l 0,2 0,68 0,2 c 0,2.78185 2.21815,5 5,5 l 2,0 68,0 2,0 c 2.78185,0 5,-2.21815 5,-5 l 0,-2 0,-68 0,-2 c 0,-0.3643 -0.0521,-0.72099 -0.125,-1.0625 -0.0442,-0.20689 -0.0884,-0.39766 -0.15625,-0.59375 -0.008,-0.022 -0.0233,-0.0407 -0.0312,-0.0625 -0.0627,-0.17374 -0.13838,-0.36745 -0.21875,-0.53125 -0.0416,-0.0828 -0.079,-0.16995 -0.125,-0.25 -0.0546,-0.0972 -0.12677,-0.18835 -0.1875,-0.28125 -0.0941,-0.14097 -0.20492,-0.276 -0.3125,-0.40625 -0.14317,-0.17445 -0.30314,-0.347 -0.46875,-0.5 -0.0112,-0.0102 -0.02,-0.0211 -0.0312,-0.0312 -0.13839,-0.12556 -0.28509,-0.23444 -0.4375,-0.34375 -0.10257,-0.0731 -0.20432,-0.15336 -0.3125,-0.21875 -0.007,-0.005 -0.0238,0.004 -0.0312,0 -0.23204,-0.13873 -0.46255,-0.27478 -0.71875,-0.375 0.30153,0.0968 0.59645,0.20414 0.875,0.34375 0.55709,0.27922 1.06005,0.66569 1.5,1.09375 0.21997,0.21403 0.40937,0.44186 0.59375,0.6875 0.18438,0.24563 0.35541,0.50774 0.5,0.78125 0.14012,0.26505 0.27613,0.52473 0.375,0.8125 0.0104,0.0308 0.0213,0.0627 0.0312,0.0937 0.0905,0.27808 0.1388,0.5794 0.1875,0.875 0.0524,0.31805 0.0937,0.63403 0.0937,0.96875 l 0,2 0,68 0,2 c 0,3.324 -2.676,6 -6,6 l -72,0 z"
         inkscape:connector-curvature="0"
         id="path3615"
         style="opacity:0.4;fill:url(#radialGradient6549);fill-opacity:1;fill-rule:nonzero;stroke:none" />
      <path
         style="color:#000000;fill:#b35224;fill-opacity:0.99215686;fill-rule:nonzero;stroke:none;stroke-width:1;marker:none;visibility:visible;display:inline;overflow:visible;enable-background:accumulate"
         id="path6435"
         inkscape:connector-curvature="0"
         d="m 491.51685,422.67119 c 8.77983,0 15.89682,7.1521 15.89682,15.9756 6.58499,0 11.92269,5.36426 11.92269,11.98142 0,6.6176 -5.3377,11.98175 -11.92269,11.98175 l -43.716,0 c -6.58498,0 -11.92268,-5.36415 -11.92268,-11.98175 0,-6.61716 5.3377,-11.98142 11.92268,-11.98142 0,-4.41153 3.55835,-7.98818 7.94828,-7.98818 1.96765,0 3.70376,0.80703 5.0921,1.99699 2.35182,-5.86795 8.09748,-9.98441 14.7788,-9.98441 z" />
      <path
         style="color:#000000;fill:#eb6e3c;fill-opacity:1;fill-rule:nonzero;stroke:none;stroke-width:1;marker:none;visibility:visible;display:inline;overflow:visible;enable-background:accumulate"
         id="path6437"
         inkscape:connector-curvature="0"
         d="m 491.66565,423.34273 c 8.68619,0 15.72728,7.05424 15.72728,15.75698 6.51473,0 11.7955,5.29086 11.7955,11.81746 0,6.52705 -5.28077,11.81779 -11.7955,11.81779 l -43.24972,0 c -6.51475,0 -11.79551,-5.29074 -11.79551,-11.81779 0,-6.5266 5.28076,-11.81746 11.79551,-11.81746 0,-4.35117 3.52039,-7.87885 7.8635,-7.87885 1.94665,0 3.66425,0.79598 5.03779,1.96965 2.32673,-5.78765 8.0111,-9.84778 14.62115,-9.84778 z" />
      <path
         d="m 491.9233,423.72789 c 8.62054,0 15.60843,6.96379 15.60843,15.55494 6.46551,0 11.70637,5.22303 11.70637,11.66594 0,6.44337 -5.24086,11.66627 -11.70637,11.66627 l -42.9229,0 c -6.46552,0 -11.70639,-5.2229 -11.70639,-11.66627 0,-6.44291 5.24087,-11.66594 11.70639,-11.66594 0,-4.29537 3.49379,-7.77783 7.80408,-7.77783 1.93194,0 3.63655,0.78578 4.99971,1.9444 2.30915,-5.71344 7.95057,-9.72151 14.51068,-9.72151 z"
         inkscape:connector-curvature="0"
         id="path3907"
         style="color:#000000;fill:#f0591c;fill-opacity:1;fill-rule:nonzero;stroke:none;stroke-width:1;marker:none;visibility:visible;display:inline;overflow:visible;enable-background:accumulate" />
      <g
         id="g6457"
         transform="matrix(0.34321067,0,0,0.34358433,467.45782,431.2917)"
         style="fill:#b24514;fill-opacity:1">
        <path
           id="path6459"
           d="m 96.323,68.662 -6.3,-3.697 c 0.209,-2.538 -0.101,-5.015 -0.84,-7.312 l 5.281,-5.034 -3.648,-5.766 -6.807,2.615 c -1.778,-1.659 -3.897,-2.999 -6.247,-3.888 -0.002,0 -0.003,-10e-4 -0.004,-0.002 l -0.644,-7.275 -6.782,-0.743 -2.203,6.96 c -2.489,0.361 -4.838,1.211 -6.937,2.45 -10e-4,10e-4 -0.002,10e-4 -0.003,0.002 l -6.086,-4.03 -4.81,4.84 4.067,6.059 c -1.219,2.089 -2.048,4.427 -2.398,6.955 l -6.956,2.248 0.785,6.775 7.27,0.599 c 0,10e-4 0,0.002 0,0.002 0.9,2.312 2.24,4.431 3.94,6.221 l -2.574,6.829 5.788,3.611 5.008,-5.32 c 1.16,0.37 2.359,0.62 3.618,0.76 1.249,0.141 2.488,0.15 3.697,0.051 l 3.731,6.268 6.433,-2.272 -1.034,-7.221 c 2.037,-1.38 3.815,-3.157 5.193,-5.225 v -0.001 l 7.226,0.99 2.236,-6.449 z m -26.01,0.378 -3.08,-0.14 -1.48,-2.7 -1.8,-2.5 1.18,-2.84 0.83,-2.971 2.96,-0.85 2.84,-1.2 2.511,1.79 2.71,1.46 0.159,3.08 0.551,3.03 -2.311,2.05 -2.03,2.32 -3.04,-0.529 z"
           inkscape:connector-curvature="0"
           style="fill:#b24514;fill-opacity:1" />
        <path
           id="path6461"
           d="m 46.214,24.47 -4.468,1.601 0.648,4.385 4.739,0.24 c 0,0 0,10e-4 0,10e-4 0.629,1.489 1.549,2.829 2.679,3.958 l -1.534,4.488 3.832,2.228 3.145,-3.554 h 10e-4 c 0.761,0.221 1.551,0.36 2.36,0.42 0.82,0.061 1.61,0.051 2.4,-0.05 h 0.004 l 2.554,3.999 4.131,-1.606 -0.817,-4.663 c 1.299,-0.939 2.408,-2.129 3.269,-3.499 0.001,-10e-4 0.001,-0.003 0.002,-0.003 l 4.707,0.495 1.319,-4.231 -4.168,-2.276 c 0,-10e-4 0,-0.003 0,-0.005 0.08,-1.66 -0.17,-3.25 -0.69,-4.72 -0.001,-0.001 -0.001,-0.003 -0.002,-0.005 l 3.328,-3.375 -2.486,-3.67 -4.372,1.839 C 65.598,15.419 64.209,14.589 62.661,14.06 L 62.096,9.355 57.678,9.01 56.387,13.577 c -1.61,0.28 -3.122,0.881 -4.462,1.721 -0.002,10e-4 -0.004,0.003 -0.006,0.004 l -4.024,-2.488 -3.025,3.24 2.765,3.853 0,0.001 c -0.751,1.377 -1.25,2.914 -1.421,4.562 z m 8.561,-0.223 0.471,-1.95 1.91,-0.61 1.82,-0.84 1.66,1.11 1.79,0.899 0.17,1.99 0.42,1.96 -1.46,1.38 -1.271,1.54 -1.979,-0.28 -2,-0.029 -1.021,-1.721 -1.223,-1.59 0.713,-1.859 z"
           inkscape:connector-curvature="0"
           style="fill:#b24514;fill-opacity:1" />
        <path
           id="path6463"
           d="m 46.893,57.644 1.704,-5.491 -5.402,-2.94 c 0,-0.002 0,-0.005 0,-0.007 0.094,-2.143 -0.23,-4.215 -0.911,-6.129 l 4.309,-4.382 -3.229,-4.756 -5.667,2.392 c -1.549,-1.357 -3.36,-2.428 -5.365,-3.116 l -0.74,-6.1 -5.732,-0.439 -1.66,5.913 c -0.002,0.001 -0.003,0.001 -0.004,0.001 -2.09,0.374 -4.042,1.155 -5.776,2.261 l -5.234,-3.226 -3.92,4.205 3.589,4.99 c -0.961,1.788 -1.606,3.781 -1.83,5.924 l -5.793,2.082 0.847,5.686 6.138,0.304 c 10e-4,10e-4 10e-4,0.002 0.002,0.004 0.821,1.924 2.009,3.659 3.49,5.117 l 0,0 -1.984,5.832 4.975,2.884 4.061,-4.606 c 0.985,0.27 2.01,0.447 3.071,0.535 1.062,0.077 2.102,0.055 3.12,-0.058 10e-4,0 0.003,0 0.005,0 l 3.311,5.17 5.354,-2.092 -1.07,-6.054 c 1.683,-1.227 3.12,-2.757 4.231,-4.539 0,0 0,-10e-4 10e-4,-10e-4 l 6.109,0.636 z m -20.187,-4.464 -2.592,-0.035 -1.328,-2.232 -1.585,-2.056 0.919,-2.421 0.616,-2.523 2.473,-0.794 2.357,-1.091 2.161,1.435 2.315,1.161 0.226,2.585 0.545,2.539 -1.892,1.791 -1.648,2.007 -2.567,-0.366 z"
           inkscape:connector-curvature="0"
           style="fill:#b24514;fill-opacity:1" />
      </g>
      <g
         transform="matrix(1.0183371,0,0,1.0141466,-8.731522,-6.4128647)"
         style="fill:#ef5e24;fill-opacity:1"
         id="g6481">
        <path
           id="path6483"
           d="m 499.82749,454.62075 -2.02959,-1.19103 c 0.0673,-0.81763 -0.0325,-1.61561 -0.27061,-2.35562 l 1.7013,-1.62174 -1.17523,-1.85756 -2.19292,0.84244 c -0.57281,-0.53445 -1.25546,-0.96614 -2.01253,-1.25254 -6.4e-4,0 -9.6e-4,-3.3e-4 -9.8e-4,-6.6e-4 l -0.20748,-2.34369 -2.18487,-0.23936 -0.70972,2.24221 c -0.80185,0.1163 -1.5586,0.39015 -2.23481,0.78929 -3.2e-4,3.3e-4 -6.5e-4,3.3e-4 -9.8e-4,6.5e-4 l -1.96065,-1.2983 -1.54957,1.55925 1.31021,1.95195 c -0.3927,0.67299 -0.65978,1.42619 -0.77252,2.24061 l -2.24094,0.72422 0.25289,2.18262 2.34209,0.19297 c 0,3.3e-4 0,6.3e-4 0,6.3e-4 0.28995,0.74484 0.72164,1.42749 1.26931,2.00415 l -0.82924,2.20002 1.86465,1.16332 1.61336,-1.71389 c 0.37371,0.1192 0.75999,0.19975 1.16557,0.24484 0.40238,0.0454 0.80155,0.0483 1.19103,0.0164 l 1.20197,2.01929 2.07243,-0.73194 -0.3331,-2.3263 c 0.65624,-0.44458 1.22902,-1.01706 1.67297,-1.68328 v -3.3e-4 l 2.32792,0.31894 0.72034,-2.07759 z m -8.37933,0.12177 -0.99225,-0.0451 -0.4768,-0.86983 -0.57988,-0.8054 0.38015,-0.91494 0.26738,-0.95713 0.95361,-0.27383 0.91491,-0.38658 0.80895,0.57666 0.87305,0.47035 0.0512,0.99224 0.1775,0.97615 -0.7445,0.66041 -0.65399,0.74741 -0.97935,-0.17042 z"
           inkscape:connector-curvature="0"
           style="fill:#ef5e24;fill-opacity:1" />
        <path
           id="path6485"
           d="m 483.64909,439.66067 -1.41673,0.50764 0.20546,1.39042 1.50267,0.0762 c 0,0 0,3.2e-4 0,3.2e-4 0.19945,0.47214 0.49117,0.89703 0.84947,1.25501 l -0.4864,1.42308 1.21507,0.70647 0.99721,-1.12692 h 3.3e-4 c 0.24129,0.07 0.49179,0.11415 0.74831,0.13317 0.26001,0.0193 0.51049,0.0162 0.76099,-0.0159 h 9.7e-4 l 0.80982,1.26801 1.30989,-0.50924 -0.25907,-1.47855 c 0.4119,-0.29773 0.76354,-0.67507 1.03656,-1.10949 3e-4,-2.9e-4 3e-4,-9.4e-4 6.3e-4,-9.4e-4 l 1.4925,0.15695 0.41825,-1.34159 -1.32162,-0.72167 c 0,-3.3e-4 0,-9.5e-4 0,-0.002 0.0255,-0.52637 -0.0539,-1.03052 -0.21877,-1.49664 -3.3e-4,-3.1e-4 -3.3e-4,-9.6e-4 -6.5e-4,-0.002 l 1.05526,-1.07014 -0.78825,-1.16371 -1.38631,0.58311 c -0.37955,-0.33228 -0.81998,-0.59547 -1.31083,-0.76321 l -0.17915,-1.49188 -1.40086,-0.1094 -0.40935,1.44813 c -0.51052,0.0889 -0.98996,0.27935 -1.41484,0.54571 -6.2e-4,3.2e-4 -9.7e-4,9.4e-4 -0.002,9.7e-4 l -1.27596,-0.78891 -0.95916,1.02735 0.87673,1.22174 0,3e-4 c -0.23812,0.43664 -0.39635,0.92399 -0.45058,1.44654 z m 2.71457,-0.0706 0.14934,-0.61832 0.6056,-0.19344 0.5771,-0.26632 0.52638,0.35196 0.56756,0.28505 0.0539,0.631 0.13317,0.62148 -0.46293,0.43758 -0.40302,0.48829 -0.6275,-0.0889 -0.63417,-0.009 -0.32376,-0.54569 -0.38778,-0.50415 0.22609,-0.58946 z"
           inkscape:connector-curvature="0"
           style="fill:#ef5e24;fill-opacity:1" />
        <path
           id="path6487"
           d="m 483.18316,450.91429 0.55166,-1.77771 -1.74889,-0.95183 c 0,-6.5e-4 0,-0.002 0,-0.002 0.0304,-0.69378 -0.0745,-1.3646 -0.29493,-1.98425 l 1.39503,-1.41868 -1.04538,-1.53975 -1.83469,0.77441 c -0.50149,-0.43933 -1.08781,-0.78606 -1.73692,-1.0088 l -0.23958,-1.97487 -1.85573,-0.14213 -0.53742,1.91433 c -6.4e-4,3.3e-4 -9.7e-4,3.3e-4 -9.9e-4,3.3e-4 -0.67664,0.12108 -1.3086,0.37393 -1.86998,0.732 l -1.6945,-1.04442 -1.2691,1.36137 1.16193,1.6155 c -0.31112,0.57887 -0.51994,1.2241 -0.59246,1.91789 l -1.87548,0.67405 0.27422,1.84084 1.98717,0.0984 c 3.2e-4,3.3e-4 3.2e-4,6.5e-4 6.5e-4,9.9e-4 0.26579,0.62289 0.65041,1.18459 1.12988,1.65662 l 0,0 -0.64232,1.88811 1.61066,0.93369 1.31475,-1.49119 c 0.31889,0.0874 0.65073,0.14472 0.99423,0.17321 0.34382,0.0249 0.68052,0.0178 1.0101,-0.0188 3.2e-4,0 9.6e-4,0 0.002,0 l 1.07193,1.67379 1.73335,-0.67729 -0.34641,-1.95997 c 0.54487,-0.39725 1.0101,-0.89259 1.36978,-1.46951 0,0 0,-3.2e-4 3.2e-4,-3.2e-4 l 1.97779,0.20591 z m -6.53553,-1.44522 -0.83916,-0.0113 -0.42994,-0.7226 -0.51314,-0.66563 0.29753,-0.7838 0.19943,-0.81682 0.80062,-0.25706 0.76308,-0.3532 0.69963,0.46458 0.74948,0.37587 0.0732,0.83689 0.17644,0.822 -0.61254,0.57984 -0.53354,0.64976 -0.83106,-0.11849 z"
           inkscape:connector-curvature="0"
           style="fill:#ef5e24;fill-opacity:1" />
      </g>
      <g
         style="fill:#ffffff;fill-opacity:1"
         transform="translate(0.14924758,-0.1262691)"
         id="g6476">
        <path
           style="fill:#ffffff;fill-opacity:1"
           inkscape:connector-curvature="0"
           d="m 499.82749,454.62075 -2.02959,-1.19103 c 0.0673,-0.81763 -0.0325,-1.61561 -0.27061,-2.35562 l 1.7013,-1.62174 -1.17523,-1.85756 -2.19292,0.84244 c -0.57281,-0.53445 -1.25546,-0.96614 -2.01253,-1.25254 -6.4e-4,0 -9.6e-4,-3.3e-4 -9.8e-4,-6.6e-4 l -0.20748,-2.34369 -2.18487,-0.23936 -0.70972,2.24221 c -0.80185,0.1163 -1.5586,0.39015 -2.23481,0.78929 -3.2e-4,3.3e-4 -6.5e-4,3.3e-4 -9.8e-4,6.5e-4 l -1.96065,-1.2983 -1.54957,1.55925 1.31021,1.95195 c -0.3927,0.67299 -0.65978,1.42619 -0.77252,2.24061 l -2.24094,0.72422 0.25289,2.18262 2.34209,0.19297 c 0,3.3e-4 0,6.3e-4 0,6.3e-4 0.28995,0.74484 0.72164,1.42749 1.26931,2.00415 l -0.82924,2.20002 1.86465,1.16332 1.61336,-1.71389 c 0.37371,0.1192 0.75999,0.19975 1.16557,0.24484 0.40238,0.0454 0.80155,0.0483 1.19103,0.0164 l 1.20197,2.01929 2.07243,-0.73194 -0.3331,-2.3263 c 0.65624,-0.44458 1.22902,-1.01706 1.67297,-1.68328 v -3.3e-4 l 2.32792,0.31894 0.72034,-2.07759 z m -8.37933,0.12177 -0.99225,-0.0451 -0.4768,-0.86983 -0.57988,-0.8054 0.38015,-0.91494 0.26738,-0.95713 0.95361,-0.27383 0.91491,-0.38658 0.80895,0.57666 0.87305,0.47035 0.0512,0.99224 0.1775,0.97615 -0.7445,0.66041 -0.65399,0.74741 -0.97935,-0.17042 z"
           id="path6440" />
        <path
           style="fill:#ffffff;fill-opacity:1"
           inkscape:connector-curvature="0"
           d="m 483.64909,439.66067 -1.41673,0.50764 0.20546,1.39042 1.50267,0.0762 c 0,0 0,3.2e-4 0,3.2e-4 0.19945,0.47214 0.49117,0.89703 0.84947,1.25501 l -0.4864,1.42308 1.21507,0.70647 0.99721,-1.12692 h 3.3e-4 c 0.24129,0.07 0.49179,0.11415 0.74831,0.13317 0.26001,0.0193 0.51049,0.0162 0.76099,-0.0159 h 9.7e-4 l 0.80982,1.26801 1.30989,-0.50924 -0.25907,-1.47855 c 0.4119,-0.29773 0.76354,-0.67507 1.03656,-1.10949 3e-4,-2.9e-4 3e-4,-9.4e-4 6.3e-4,-9.4e-4 l 1.4925,0.15695 0.41825,-1.34159 -1.32162,-0.72167 c 0,-3.3e-4 0,-9.5e-4 0,-0.002 0.0255,-0.52637 -0.0539,-1.03052 -0.21877,-1.49664 -3.3e-4,-3.1e-4 -3.3e-4,-9.6e-4 -6.5e-4,-0.002 l 1.05526,-1.07014 -0.78825,-1.16371 -1.38631,0.58311 c -0.37955,-0.33228 -0.81998,-0.59547 -1.31083,-0.76321 l -0.17915,-1.49188 -1.40086,-0.1094 -0.40935,1.44813 c -0.51052,0.0889 -0.98996,0.27935 -1.41484,0.54571 -6.2e-4,3.2e-4 -9.7e-4,9.4e-4 -0.002,9.7e-4 l -1.27596,-0.78891 -0.95916,1.02735 0.87673,1.22174 0,3e-4 c -0.23812,0.43664 -0.39635,0.92399 -0.45058,1.44654 z m 2.71457,-0.0706 0.14934,-0.61832 0.6056,-0.19344 0.5771,-0.26632 0.52638,0.35196 0.56756,0.28505 0.0539,0.631 0.13317,0.62148 -0.46293,0.43758 -0.40302,0.48829 -0.6275,-0.0889 -0.63417,-0.009 -0.32376,-0.54569 -0.38778,-0.50415 0.22609,-0.58946 z"
           id="path6442" />
        <path
           style="fill:#ffffff;fill-opacity:1"
           inkscape:connector-curvature="0"
           d="m 483.18316,450.91429 0.55166,-1.77771 -1.74889,-0.95183 c 0,-6.5e-4 0,-0.002 0,-0.002 0.0304,-0.69378 -0.0745,-1.3646 -0.29493,-1.98425 l 1.39503,-1.41868 -1.04538,-1.53975 -1.83469,0.77441 c -0.50149,-0.43933 -1.08781,-0.78606 -1.73692,-1.0088 l -0.23958,-1.97487 -1.85573,-0.14213 -0.53742,1.91433 c -6.4e-4,3.3e-4 -9.7e-4,3.3e-4 -9.9e-4,3.3e-4 -0.67664,0.12108 -1.3086,0.37393 -1.86998,0.732 l -1.6945,-1.04442 -1.2691,1.36137 1.16193,1.6155 c -0.31112,0.57887 -0.51994,1.2241 -0.59246,1.91789 l -1.87548,0.67405 0.27422,1.84084 1.98717,0.0984 c 3.2e-4,3.3e-4 3.2e-4,6.5e-4 6.5e-4,9.9e-4 0.26579,0.62289 0.65041,1.18459 1.12988,1.65662 l 0,0 -0.64232,1.88811 1.61066,0.93369 1.31475,-1.49119 c 0.31889,0.0874 0.65073,0.14472 0.99423,0.17321 0.34382,0.0249 0.68052,0.0178 1.0101,-0.0188 3.2e-4,0 9.6e-4,0 0.002,0 l 1.07193,1.67379 1.73335,-0.67729 -0.34641,-1.95997 c 0.54487,-0.39725 1.0101,-0.89259 1.36978,-1.46951 0,0 0,-3.2e-4 3.2e-4,-3.2e-4 l 1.97779,0.20591 z m -6.53553,-1.44522 -0.83916,-0.0113 -0.42994,-0.7226 -0.51314,-0.66563 0.29753,-0.7838 0.19943,-0.81682 0.80062,-0.25706 0.76308,-0.3532 0.69963,0.46458 0.74948,0.37587 0.0732,0.83689 0.17644,0.822 -0.61254,0.57984 -0.53354,0.64976 -0.83106,-0.11849 z"
           id="path6444" />
      </g>
    </g>
  </g>
</svg>
